name GIL11_free1EmgEnv.mot
datacolumns 51
datarows 5
range 0.85092586 0.85462958
endheader
                time	   rect_fem_l_emgRec	   rect_fem_l_emgEnv	   rect_fem_l_emgAve	   rect_fem_l_emgSDp	   rect_fem_l_emgSDm	   rect_fem_r_emgRec	   rect_fem_r_emgEnv	   rect_fem_r_emgAve	   rect_fem_r_emgSDp	   rect_fem_r_emgSDm	   med_hams_l_emgRec	   med_hams_l_emgEnv	   med_hams_l_emgAve	   med_hams_l_emgSDp	   med_hams_l_emgSDm	   med_hams_r_emgRec	   med_hams_r_emgEnv	   med_hams_r_emgAve	   med_hams_r_emgSDp	   med_hams_r_emgSDm	   lat_hams_l_emgRec	   lat_hams_l_emgEnv	   lat_hams_l_emgAve	   lat_hams_l_emgSDp	   lat_hams_l_emgSDm	   lat_hams_r_emgRec	   lat_hams_r_emgEnv	   lat_hams_r_emgAve	   lat_hams_r_emgSDp	   lat_hams_r_emgSDm	    tib_ant_l_emgRec	    tib_ant_l_emgEnv	    tib_ant_l_emgAve	    tib_ant_l_emgSDp	    tib_ant_l_emgSDm	    tib_ant_r_emgRec	    tib_ant_r_emgEnv	    tib_ant_r_emgAve	    tib_ant_r_emgSDp	    tib_ant_r_emgSDm	    gas_sol_l_emgRec	    gas_sol_l_emgEnv	    gas_sol_l_emgAve	    gas_sol_l_emgSDp	    gas_sol_l_emgSDm	    gas_sol_r_emgRec	    gas_sol_r_emgEnv	    gas_sol_r_emgAve	    gas_sol_r_emgSDp	    gas_sol_r_emgSDm	
          0.85092586	          0.00777343	          0.00395045	          0.01898888	          0.04051073	         -0.00253296	          0.02460635	          0.03382763	          0.04862159	          0.04985835	          0.04738483	          0.00300641	          0.03000865	          0.04494039	          0.10856935	         -0.01868857	          0.00279255	          0.09641919	          0.04697241	          0.09388744	          0.00005737	          0.00022241	          0.01961772	          0.05001108	          0.10975144	         -0.00972927	          0.01180358	          0.03757208	          0.02497425	          0.03058605	          0.01936245	          0.05974579	          0.24218711	          0.24862333	          0.39071056	          0.10653609	          0.00569304	          0.08453184	          0.06058184	          0.08401022	          0.03715346	          0.00389535	          0.02584102	          0.01690895	          0.04469364	         -0.01087575	          0.00898265	          0.45624794	          0.46239185	          0.58661994	          0.33816376	
          0.85185182	          0.00788362	          0.00350249	          0.01946564	          0.04101912	         -0.00208784	          0.00970782	          0.03404235	          0.04908627	          0.05059534	          0.04757719	          0.00639654	          0.02944742	          0.04743820	          0.11147024	         -0.01659384	          0.01846307	          0.09548406	          0.04548784	          0.09216687	         -0.00119119	          0.00072947	          0.01916089	          0.05144707	          0.11212799	         -0.00923385	         -0.00005948	          0.03776737	          0.02490642	          0.03044824	          0.01936460	          0.05877976	          0.23235631	          0.24407634	          0.38417363	          0.10397905	          0.00387980	          0.08586321	          0.06157311	          0.08517312	          0.03797310	          0.01699131	          0.02435111	          0.01629315	          0.04366822	         -0.01108193	          0.14262118	          0.45776767	          0.46436673	          0.58915259	          0.33958088	
          0.85277772	          0.00640305	          0.00307246	          0.01996603	          0.04154467	         -0.00161260	          0.00543632	          0.03429639	          0.04954560	          0.05133933	          0.04775187	          0.00173364	          0.02883682	          0.05000221	          0.11443559	         -0.01443117	          0.00930487	          0.09450022	          0.04403925	          0.09048660	         -0.00240811	          0.00274419	          0.01872121	          0.05293743	          0.11455732	         -0.00868246	          0.00819996	          0.03796668	          0.02486120	          0.03035155	          0.01937085	          0.06554188	          0.22270873	          0.23960371	          0.37768309	          0.10152434	          0.02935048	          0.08719839	          0.06257791	          0.08634401	          0.03881181	          0.00886175	          0.02289620	          0.01569730	          0.04265770	         -0.01126310	          0.21005084	          0.45943379	          0.46636999	          0.59172507	          0.34101491	
          0.85370362	          0.01090490	          0.00266143	          0.02049012	          0.04208768	         -0.00110744	          0.00873582	          0.03458910	          0.04999958	          0.05209030	          0.04790886	          0.00356966	          0.02817717	          0.05263267	          0.11746608	         -0.01220074	          0.01503958	          0.09347103	          0.04262682	          0.08884683	         -0.00359318	          0.00737581	          0.01829874	          0.05448260	          0.11703949	         -0.00807429	          0.01469354	          0.03817048	          0.02483866	          0.03029608	          0.01938123	          0.06921327	          0.21325007	          0.23520626	          0.37124097	          0.09917155	          0.03432363	          0.08853501	          0.06359610	          0.08752273	          0.03966947	          0.00479615	          0.02147719	          0.01512143	          0.04166235	         -0.01141950	          0.04464690	          0.46123662	          0.46840143	          0.59433708	          0.34246579	
          0.85462958	          0.01620982	          0.00227055	          0.02103796	          0.04264845	         -0.00057253	          0.00676240	          0.03491974	          0.05044822	          0.05284827	          0.04804817	          0.00143536	          0.02746896	          0.05532978	          0.12056239	         -0.00990283	          0.01809249	          0.09240002	          0.04125076	          0.08724774	         -0.00474623	          0.01282460	          0.01789360	          0.05608296	          0.11957459	         -0.00740866	          0.00746355	          0.03837926	          0.02483884	          0.03028196	          0.01939573	          0.05973659	          0.20398576	          0.23088479	          0.36484931	          0.09692027	          0.03606331	          0.08987061	          0.06462756	          0.08870912	          0.04054600	          0.00177074	          0.02009492	          0.01456554	          0.04068249	         -0.01155142	          0.18036903	          0.46316647	          0.47046068	          0.59698810	          0.34393327	
